<svg xmlns="http://www.w3.org/2000/svg" viewBox="0 0 64 64" role="img" aria-label="Premium Notify Neon Ring">
  <defs>
    <linearGradient id="bg" x1="8" y1="8" x2="56" y2="56" gradientUnits="userSpaceOnUse">
      <stop offset="0" stop-color="#020617"/>
      <stop offset="1" stop-color="#111827"/>
    </linearGradient>
    <linearGradient id="n" x1="18" y1="14" x2="46" y2="50" gradientUnits="userSpaceOnUse">
      <stop offset="0" stop-color="#22d3ee"/>
      <stop offset="0.55" stop-color="#38bdf8"/>
      <stop offset="1" stop-color="#818cf8"/>
    </linearGradient>
    <filter id="f" x="-40%" y="-40%" width="180%" height="180%">
      <feGaussianBlur stdDeviation="2.1" result="b"/>
      <feMerge><feMergeNode in="b"/><feMergeNode in="SourceGraphic"/></feMerge>
    </filter>
  </defs>
  <rect x="4" y="4" width="56" height="56" rx="18" fill="url(#bg)"/>
  <circle cx="32" cy="32" r="18.5" fill="none" stroke="url(#n)" stroke-width="3.2" filter="url(#f)"/>
  <path d="M24 31.5c0-5 3.2-9 8-10.3V19a2 2 0 1 1 4 0v2.2c4.8 1.3 8 5.3 8 10.3v6l2 3.2c.7 1.1-.1 2.3-1.4 2.3H19.4c-1.3 0-2.1-1.2-1.4-2.3l2-3.2v-6z" fill="#e2e8f0"/>
  <circle cx="32" cy="47" r="2.2" fill="#f8fafc"/>
  <circle cx="47" cy="17" r="5.5" fill="#22c55e"/>
</svg>
