<svg xmlns="http://www.w3.org/2000/svg" viewBox="0 0 512 512">
  <defs>
    <linearGradient id="g" x1="0" y1="0" x2="1" y2="1">
      <stop offset="0" stop-color="#0f2027" />
      <stop offset="0.5" stop-color="#203a43" />
      <stop offset="1" stop-color="#2c5364" />
    </linearGradient>
  </defs>
  <rect width="512" height="512" rx="120" fill="url(#g)" />
  <circle cx="256" cy="262" r="142" fill="#ecfeff" opacity="0.18" />
  <path
    d="M256 118c-61 0-110 49-110 110v67c0 23-8 45-23 62l-18 21h302l-18-21c-15-17-23-39-23-62v-67c0-61-49-110-110-110zm0 286c20 0 37-14 42-33h-84c5 19 22 33 42 33z"
    fill="#ecfeff"
  />
  <circle cx="340" cy="132" r="40" fill="#ef4444" />
</svg>
